<?xml version="1.0" standalone="no"?>
<!DOCTYPE svg PUBLIC "-//W3C//DTD SVG 20010904//EN"
 "http://www.w3.org/TR/2001/REC-SVG-20010904/DTD/svg10.dtd">
<svg version="1.0" xmlns="http://www.w3.org/2000/svg"
 width="950.000000pt" height="950.000000pt" viewBox="0 0 950.000000 950.000000"
 preserveAspectRatio="xMidYMid meet">
<metadata>
Created by potrace 1.14, written by Peter Selinger 2001-2017
</metadata>
<g transform="translate(0.000000,950.000000) scale(0.100000,-0.100000)"
fill="#000000" stroke="none">
<path d="M1705 8459 c-342 -56 -611 -327 -665 -669 -14 -90 -14 -5980 0 -6070
49 -310 266 -558 572 -652 l73 -23 1775 -5 1775 -5 699 -448 c384 -246 700
-446 702 -444 4 3 44 811 44 874 l0 22 563 3 c551 4 563 4 637 27 222 67 395
213 495 416 88 178 80 -83 83 2530 l2 2320 -827 -825 c-456 -454 -1295 -1291
-1866 -1860 l-1037 -1035 -1192 1192 -1193 1193 505 505 505 505 687 -687 687
-687 1775 1768 1776 1768 -20 29 c-61 84 -257 205 -400 245 -62 18 -183 19
-3085 20 -1661 1 -3042 -2 -3070 -7z"/>
</g>
</svg>
